<?xml version="1.0" encoding="UTF-8"?>
<svg id="Layer_1" data-name="Layer 1" xmlns="http://www.w3.org/2000/svg" viewBox="0 0 880.7 569.74">
  <defs>
    <style>
      .cls-1 {
        fill: #ef4b24;
      }

      .cls-2 {
        fill: #4e5558;
      }
    </style>
  </defs>
  <path class="cls-1" d="M93.9,434.1c2.11-89.43,37.93-173.18,101.4-236.66,65.45-65.45,152.48-101.5,245.05-101.5s179.59,36.05,245.05,101.5c63.47,63.47,99.29,147.23,101.4,236.66h18.89c-2.11-94.47-39.89-182.98-106.93-250.02-69.02-69.02-160.79-107.04-258.41-107.04s-189.38,38.01-258.41,107.04c-67.04,67.04-104.82,155.55-106.93,250.02h18.89Z"/>
  <g>
    <rect class="cls-2" x="437.69" y="116.21" width="5.32" height="58.23"/>
    <rect class="cls-2" x="670.11" y="292.13" width="58.23" height="5.31" transform="translate(-53.68 389.36) rotate(-30.02)"/>
    <rect class="cls-2" x="560.7" y="182.71" width="58.23" height="5.31" transform="translate(134.06 603.15) rotate(-59.96)"/>
    <rect class="cls-2" x="178.81" y="265.67" width="5.31" height="58.23" transform="translate(-164.56 304.54) rotate(-60)"/>
    <rect class="cls-2" x="288.22" y="156.25" width="5.31" height="58.23" transform="translate(-53.71 170.26) rotate(-30)"/>
    <g>
      <rect class="cls-2" x="404.57" y="117.95" width="5.31" height="22.3" transform="translate(-11.26 43.27) rotate(-6)"/>
      <rect class="cls-2" x="371.8" y="123.13" width="5.32" height="22.3" transform="translate(-19.72 80.68) rotate(-11.98)"/>
      <rect class="cls-2" x="339.77" y="131.72" width="5.32" height="22.3" transform="translate(-27.38 112.68) rotate(-17.98)"/>
      <rect class="cls-2" x="308.8" y="143.61" width="5.32" height="22.3" transform="translate(-36.01 139.87) rotate(-23.97)"/>
    </g>
    <g>
      <rect class="cls-2" x="462.32" y="126.44" width="22.3" height="5.32" transform="translate(295.16 586.31) rotate(-83.95)"/>
      <rect class="cls-2" x="495.08" y="131.62" width="22.3" height="5.32" transform="translate(270.03 601.74) rotate(-78.05)"/>
      <rect class="cls-2" x="527.12" y="140.21" width="22.3" height="5.32" transform="translate(236.22 610.75) rotate(-72.02)"/>
      <rect class="cls-2" x="558.09" y="152.1" width="22.3" height="5.32" transform="translate(196.53 612) rotate(-66.03)"/>
    </g>
    <g>
      <polygon class="cls-2" points="744.69 414.94 744.13 409.65 766.31 407.32 766.87 412.61 744.69 414.94"/>
      <rect class="cls-2" x="739.16" y="375.71" width="22.3" height="5.32" transform="translate(-62.03 163.36) rotate(-11.94)"/>
      <rect class="cls-2" x="730.58" y="343.67" width="22.3" height="5.31" transform="translate(-70.68 245.85) rotate(-17.98)"/>
      <rect class="cls-2" x="718.69" y="312.7" width="22.3" height="5.32" transform="translate(-65.18 323.35) rotate(-23.94)"/>
    </g>
    <g>
      <rect class="cls-2" x="253.94" y="174.93" width="5.32" height="22.3" transform="translate(-60.36 183.25) rotate(-35.44)"/>
      <rect class="cls-2" x="227.95" y="195.55" width="5.32" height="22.31" transform="translate(-79.07 204.32) rotate(-41.43)"/>
      <rect class="cls-2" x="204.28" y="218.78" width="5.31" height="22.3" transform="translate(-102.39 226.77) rotate(-47.43)"/>
      <rect class="cls-2" x="183.15" y="244.35" width="5.32" height="22.3" transform="translate(-130.1 252.36) rotate(-53.41)"/>
    </g>
    <g>
      <rect class="cls-2" x="687.37" y="257.84" width="22.3" height="5.32" transform="translate(-21.53 453.68) rotate(-35.47)"/>
      <rect class="cls-2" x="666.74" y="231.85" width="22.3" height="5.32" transform="translate(14.54 507.45) rotate(-41.45)"/>
      <rect class="cls-2" x="643.52" y="208.18" width="22.3" height="5.31" transform="translate(56.68 550.61) rotate(-47.46)"/>
      <rect class="cls-2" x="617.95" y="187.05" width="22.3" height="5.32" transform="translate(101.8 581.78) rotate(-53.41)"/>
    </g>
    <g>
      <polygon class="cls-2" points="136 414.94 113.82 412.61 114.39 407.32 136.57 409.65 136 414.94"/>
      <rect class="cls-2" x="127.72" y="367.22" width="5.32" height="22.3" transform="translate(-266.82 427.31) rotate(-78.01)"/>
      <rect class="cls-2" x="136.31" y="335.18" width="5.32" height="22.3" transform="translate(-233.34 371.58) rotate(-72.02)"/>
      <rect class="cls-2" x="148.2" y="304.21" width="5.32" height="22.3" transform="translate(-198.59 325.11) rotate(-66.03)"/>
    </g>
  </g>
  <path class="cls-2" d="M442.69,404.45c-12.26,0-22.19,9.94-22.19,22.19s9.94,22.19,22.19,22.19,22.19-9.94,22.19-22.19-9.94-22.19-22.19-22.19Zm0,32.76c-5.84,0-10.57-4.73-10.57-10.57s4.73-10.57,10.57-10.57,10.57,4.73,10.57,10.57-4.73,10.57-10.57,10.57Z"/>
  <g>
    <path class="cls-2" d="M460.2,413.03l95.04-219.95-112.49,211.37c7.1,.02,13.4,3.38,17.45,8.59Z"/>
    <path class="cls-2" d="M424.31,439.08l-21.78,40.93h15.32l7.93,12.68,19-43.96c-.69,.06-1.38,.1-2.09,.1-7.64,0-14.39-3.87-18.38-9.75Z"/>
  </g>
</svg>